<?xml version="1.0" encoding="UTF-8"?>
<svg width="120px" height="120px" viewBox="0 0 120 120" version="1.1" xmlns="http://www.w3.org/2000/svg" xmlns:xlink="http://www.w3.org/1999/xlink">
    <title>icon/meaning/assessment</title>
    <g id="icon/meaning/assessment" stroke="none" stroke-width="1" fill="none" fill-rule="evenodd">
        <path d="M107.916667,57.9166599 C109.065835,57.920092 109.996568,58.8508246 110,59.9999933 L110,59.9999933 L110,109.999993 L80.8541667,109.999993 L80.8541667,74.5833266 C80.8506412,71.1215023 78.0451576,68.3160187 74.5833333,68.3124933 L74.5833333,68.3124933 L43.3333333,68.3124933 L43.3333333,59.9999933 C43.3367654,58.8508246 44.2674981,57.920092 45.4166667,57.9166599 L45.4166667,57.9166599 Z M72.5,72.4999933 C74.7983987,72.5067095 76.6599504,74.3682612 76.6666667,76.6666599 L76.6666667,76.6666599 L76.6666667,109.97916 L76.6458333,109.999993 L10.1458333,109.999993 L10,109.85416 L10,76.6666599 C10.0067163,74.3682612 11.8682679,72.5067095 14.1666667,72.4999933 L14.1666667,72.4999933 Z M63.125,97.4999933 L23.5416667,97.4999933 C21.8157768,97.4999933 20.4166667,98.8991034 20.4166667,100.624993 C20.4166667,102.350883 21.8157768,103.749993 23.5416667,103.749993 L23.5416667,103.749993 L63.125,103.749993 C64.8508898,103.749993 66.25,102.350883 66.25,100.624993 C66.25,98.8991034 64.8508898,97.4999933 63.125,97.4999933 L63.125,97.4999933 Z M63.125,84.9999933 L23.5416667,84.9999933 C21.8157768,84.9999933 20.4166667,86.3991034 20.4166667,88.1249933 C20.4166667,89.8508831 21.8157768,91.2499933 23.5416667,91.2499933 L23.5416667,91.2499933 L63.125,91.2499933 C64.8508898,91.2499933 66.25,89.8508831 66.25,88.1249933 C66.25,86.3991034 64.8508898,84.9999933 63.125,84.9999933 L63.125,84.9999933 Z M82.9166667,10 C91.6642005,10 99.2475004,16.0532922 101.186021,24.5833266 L101.186021,24.5833266 L105.833333,24.5833266 C108.13452,24.5833266 110,26.4488068 110,28.7499933 C110,31.0511797 108.13452,32.9166599 105.833333,32.9166599 L105.833333,32.9166599 L101.186021,32.9166599 C99.2475004,41.4466943 91.6642005,47.4999865 82.9166667,47.4999865 C74.1691328,47.4999865 66.5858329,41.4466943 64.6473125,32.9166599 L64.6473125,32.9166599 L55.3526875,32.9166599 C53.4141671,41.4466943 45.8308672,47.4999865 37.0833333,47.4999865 C28.3357995,47.4999865 20.7524996,41.4466943 18.8139792,32.9166599 L18.8139792,32.9166599 L14.1666667,32.9166599 C11.8654802,32.9166599 10,31.0511797 10,28.7499933 C10,26.4488068 11.8654802,24.5833266 14.1666667,24.5833266 L14.1666667,24.5833266 L18.8139792,24.5833266 C20.7524996,16.0532922 28.3357995,10 37.0833333,10 C45.8308672,10 53.4141671,16.0532922 55.3526875,24.5833266 L55.3526875,24.5833266 L64.6473125,24.5833266 C66.5858329,16.0532922 74.1691328,10 82.9166667,10 Z M85.9391744,18.9759626 C80.9354403,17.3554821 75.5159451,19.775704 73.3828542,24.5833266 C72.8048955,25.8966375 72.5043361,27.3151403 72.5,28.7499933 C72.5,34.0095856 76.4722328,38.419774 81.7031889,38.9678708 C86.934145,39.5159676 91.7342637,36.0249416 92.8244881,30.8795823 C93.9147126,25.734223 90.9429084,20.5964431 85.9391744,18.9759626 Z M40.105841,18.9759626 C35.102107,17.3554821 29.6826118,19.775704 27.5495208,24.5833266 C26.9715622,25.8966375 26.6710027,27.3151403 26.6666667,28.7499933 C26.6666667,34.0095856 30.6388995,38.419774 35.8698556,38.9678708 C41.1008116,39.5159676 45.9009303,36.0249416 46.9911548,30.8795823 C48.0813793,25.734223 45.1095751,20.5964431 40.105841,18.9759626 Z" id="assessment" fill="#FFB351" fill-rule="nonzero"></path>
    </g>
</svg>