<?xml version="1.0" encoding="UTF-8"?>
<svg width="120px" height="120px" viewBox="0 0 120 120" version="1.1" xmlns="http://www.w3.org/2000/svg" xmlns:xlink="http://www.w3.org/1999/xlink">
    <title>icon/meaning/disability</title>
    <g id="icon/meaning/disability" stroke="none" stroke-width="1" fill="none" fill-rule="evenodd">
        <path d="M46.958458,40.613307 C50.5605038,40.613307 53.4805389,43.5333421 53.4805389,47.1353878 C53.4805389,50.7374336 50.5605038,53.6574687 46.958458,53.6574687 C33.9949745,53.6574687 23.0441617,64.1114729 23.0441617,76.4847516 C23.0582993,89.0860512 33.270145,99.2978968 45.8714446,99.3120345 C54.9805286,99.2963307 63.2545697,94.0016506 67.0850995,85.7371059 C67.7858872,84.1547869 69.0872904,82.9162021 70.702317,82.2944903 C72.3173437,81.6727784 74.1133408,81.7190049 75.6942462,82.4229757 C78.9853787,83.8852924 80.4688682,87.7379839 79.0083763,91.0299267 C72.0643974,106.525949 55.2553437,115.08319 38.6396743,111.581038 C22.0240049,108.078886 10.0987807,93.4652045 10,76.4847516 C10,57.0405807 26.9251476,40.613307 46.958458,40.613307 Z M62.6713682,17.1989064 C64.5627922,15.3028296 67.5553077,15.0719256 69.7152155,16.6553996 L69.7152155,16.6553996 L87.1074311,28.7647297 L94.7165254,34.0476152 C95.3083423,34.4923036 95.8100155,35.0456766 96.1947115,35.6781354 C97.1826693,37.3333341 97.2075617,39.3911092 96.2599323,41.0697222 C96.1689002,41.2955161 96.0599226,41.513653 95.9340457,41.722039 L95.9340457,41.722039 L83.8962193,59.2165643 L103.070224,58.0182189 C105.028233,57.8988242 106.936545,58.6640317 108.269627,60.1031107 C109.600949,61.5440351 110.212343,63.5080219 109.934127,65.4499995 L109.934127,65.4499995 L105.586073,95.8863767 C105.257007,98.1934298 103.721954,100.149594 101.559315,101.017795 C99.3966768,101.885995 96.9351188,101.534288 95.1021463,100.095194 C93.2691738,98.6561008 92.3433521,96.3483269 92.673527,94.0414323 L92.673527,94.0414323 L95.8877389,71.5368402 L69.1009225,73.2108409 C69.0097438,73.2161455 68.923761,73.1982316 68.8335171,73.1998186 L68.8335171,73.1998186 L68.7151631,73.2235807 C65.634966,73.2236 62.7844377,71.5946542 61.2207637,68.9408761 C59.6570897,66.287098 59.613465,63.0042527 61.1060688,60.3098607 L61.1060688,60.3098607 L76.3242574,34.5476414 L67.0846429,28.1777424 L60.5843024,34.678083 C58.4571813,36.7920747 55.0207076,36.7867555 52.900141,34.666189 C50.7795745,32.5456224 50.7742553,29.1091487 52.888247,26.9820276 L52.888247,26.9820276 Z M91.5987316,12.3495001 C94.0000966,8.19022134 99.3185473,6.76514767 103.477829,9.16650763 C107.637111,11.5678676 109.062191,16.8863166 106.660836,21.0456012 C104.259481,25.2048859 98.9410337,26.6299724 94.7817462,24.2286225 C90.6225063,21.8272169 89.1974357,16.5088034 91.5987316,12.3495001 Z" id="Combined-Shape" fill="#FFB351" fill-rule="nonzero"></path>
    </g>
</svg>