<?xml version="1.0" encoding="UTF-8"?>
<svg width="120px" height="120px" viewBox="0 0 120 120" version="1.1" xmlns="http://www.w3.org/2000/svg" xmlns:xlink="http://www.w3.org/1999/xlink">
    <title>icon/meaning/financing</title>
    <g id="icon/meaning/financing" stroke="none" stroke-width="1" fill="none" fill-rule="evenodd">
        <path d="M97.5,48.75 C98.6492112,48.7533297 99.5800036,49.6841221 99.5833333,50.8333333 L99.5833333,50.8333333 L99.5833333,90.4166667 C99.5800036,91.5658779 98.6492112,92.4966703 97.5,92.5 L97.5,92.5 L12.0833333,92.5 C10.9341221,92.4966703 10.0033297,91.5658779 10,90.4166667 L10,90.4166667 L10,50.8333333 C10.0033297,49.6841221 10.9341221,48.7533297 12.0833333,48.75 L12.0833333,48.75 Z M54.7916667,57.0833333 C54.1143346,57.0758203 53.4377823,57.1316184 52.7708333,57.25 C46.1470033,58.2378601 41.2457583,63.9279131 41.2499269,70.625 C41.2464486,71.6780903 41.3723438,72.7276251 41.6248542,73.75 C43.0647487,79.8569688 48.5172465,84.170606 54.7916667,84.1666694 C61.0660868,84.170606 66.5185846,79.8569688 67.9584792,73.75 C68.2109895,72.7276251 68.3368847,71.6780903 68.3334064,70.625 C68.3396856,67.0315831 66.9150184,63.5835152 64.3740849,61.0425817 C61.8331515,58.5016483 58.3850836,57.076981 54.7916667,57.0833333 Z M22.5,65.4165559 C21.788384,65.4122594 21.0820803,65.539394 20.4166667,65.7916667 C17.5472086,66.8024342 15.8249665,69.7352423 16.3401449,72.7335805 C16.8553233,75.7319187 19.4577285,77.9216602 22.5,77.9167396 C25.1486662,77.9294725 27.511316,76.2538759 28.3751458,73.75 C28.6272623,73.0845475 28.7543439,72.3782641 28.7501077,71.6666667 C28.7522155,70.0083854 28.0944467,68.4173859 26.9218637,67.2448029 C25.7492808,66.07222 24.1582813,65.4144512 22.5,65.4165559 Z M91.5043385,66.2203537 C89.5075074,64.2246126 86.4195431,63.8179998 83.9741496,65.2288038 C81.5287561,66.6396077 80.3350669,69.5164051 81.0632658,72.2440494 C81.7914647,74.9716937 84.2601615,76.8707444 87.0833333,76.875006 C89.3181163,76.8780837 91.384038,75.6862058 92.5,73.75 C93.9094685,71.3038365 93.5011697,68.2160947 91.5043385,66.2203537 Z M107.916667,30 C109.065878,30.0033297 109.99667,30.9341221 110,32.0833333 L110,32.0833333 L110,71.6666667 C109.99667,72.8158779 109.065878,73.7466703 107.916667,73.75 L107.916667,73.75 L103.75,73.75 L103.75,50.8333333 C103.739943,47.3857281 100.947605,44.5933907 97.5,44.5833333 L97.5,44.5833333 L76.625,44.5833333 C74.1343996,40.6892642 69.8307639,38.3332145 65.2083333,38.3332145 C60.5859028,38.3332145 56.282267,40.6892642 53.7916667,44.5833333 L53.7916667,44.5833333 L20.4166667,44.5833333 L20.4166667,32.0833333 C20.4199964,30.9341221 21.3507888,30.0033297 22.5,30 L22.5,30 Z" id="financing" fill="#FFB351" fill-rule="nonzero"></path>
    </g>
</svg>