<?xml version="1.0" encoding="UTF-8"?>
<svg width="120px" height="120px" viewBox="0 0 120 120" version="1.1" xmlns="http://www.w3.org/2000/svg" xmlns:xlink="http://www.w3.org/1999/xlink">
    <title>icon/meaning/food</title>
    <g id="icon/meaning/food" stroke="none" stroke-width="1" fill="none" fill-rule="evenodd">
        <path d="M107.916667,69.6162717 C108.469201,69.6162717 108.999105,69.8357651 109.389806,70.2264659 C109.780507,70.6171666 110,71.1470706 110,71.699605 C110,78.8825516 107.146586,85.7713034 102.067475,90.8504136 C96.9883651,95.9295239 90.0996133,98.7829383 82.9166667,98.7829383 L82.9166667,98.7829383 L37.0833333,98.7829383 C22.1256214,98.7829383 10,86.657317 10,71.699605 C10,70.5490118 10.9327401,69.6162717 12.0833333,69.6162717 L12.0833333,69.6162717 Z M69.8765,62.3323133 C71.3654809,56.7753826 77.0773168,53.4776539 82.63425,54.9666258 L82.63425,54.9666258 L87.8165208,56.3551258 L87.4490417,57.7263758 C85.9600515,63.2832981 80.2482185,66.5810158 74.6912917,65.0920425 L74.6912917,65.0920425 L69.5091458,63.7035008 Z M57.5805054,51.4119924 C59.973061,50.0306611 62.8163564,49.6563474 65.4848958,50.3713967 L65.4848958,50.3713967 L70.6670417,51.7599592 L70.2996875,53.1312092 C68.8106788,58.6881146 63.0988517,61.9858103 57.5419375,60.4968342 L57.5419375,60.4968342 L52.3596667,59.1082925 L52.7270833,57.7370633 C53.442121,55.0685208 55.1879499,52.7933238 57.5805054,51.4119924 Z M93.15925,51.659855 L103.639375,54.46798 C104.397446,54.6710689 105.043782,55.1670001 105.43618,55.8466616 C105.828579,56.5263231 105.934892,57.3340332 105.731729,58.0920842 C105.52863,58.850144 105.0327,59.4964694 104.353047,59.8888655 C103.673393,60.2812617 102.865693,60.387583 102.107646,60.1844383 L102.107646,60.1844383 L91.6275208,57.3763133 L93.15925,51.659855 Z M35.5776667,53.1418758 C37.066726,47.5850066 42.7785012,44.2873222 48.3354167,45.7762092 L48.3354167,45.7762092 L53.5176875,47.1647508 L53.1502083,48.5360008 C52.4352087,51.2045548 50.6893975,53.4797705 48.2968456,54.8611104 C45.9042937,56.2424503 43.0609934,56.6167584 40.3924583,55.9016883 L40.3924583,55.9016883 L35.2103125,54.5131258 Z M18.8318363,47.0610964 C19.2542742,45.4845456 20.8734833,44.5477545 22.4507917,44.967355 L22.4507917,44.967355 L30.0729167,47.0096258 C31.0940599,47.2832615 31.8916523,48.0808847 32.1652485,49.1020385 C32.4388446,50.1231923 32.1468788,51.2127391 31.3993318,51.9602573 C30.6517847,52.7077754 29.5622266,52.999699 28.5410833,52.7260633 L28.5410833,52.7260633 L20.9190625,50.6838133 C19.3432743,50.2585393 18.4093984,48.6376472 18.8318363,47.0610964 Z M77.1678542,35.1211258 L82.35,36.5097925 C85.018523,37.2247919 87.2937105,38.9705878 88.6750339,41.3631147 C90.0563573,43.7556415 90.4306624,46.5989102 89.7156042,49.2674175 L89.7156042,49.2674175 L89.34825,50.6386675 L84.1659792,49.2501258 C78.6090821,47.7611079 75.3113975,42.0492837 76.800375,36.4923758 L76.800375,36.4923758 L77.1678542,35.1211258 Z M60.0183125,30.5258758 L65.2005833,31.9145425 C67.8691336,32.6295712 70.1443405,34.3753963 71.5256803,36.7679529 C72.9070201,39.1605095 73.2813395,42.0038098 72.5662917,44.672355 L72.5662917,44.672355 L72.1988125,46.04348 L67.0166667,44.6549383 C64.3481164,43.9399096 62.0729095,42.1940845 60.6915697,39.8015279 C59.3102299,37.4089713 58.9359105,34.565671 59.6509583,31.8971258 L59.6509583,31.8971258 L60.0183125,30.5258758 Z M14.2733988,33.5859297 C14.6958367,32.0093789 16.3150458,31.0725879 17.8923542,31.4921883 L17.8923542,31.4921883 L38.8527708,37.1084383 C39.8756357,37.380544 40.6752694,38.1782638 40.9498254,39.2004737 C41.2243814,40.2226836 40.9320436,41.3136967 40.1831641,42.0616763 C39.4342845,42.8096559 38.3429207,43.1006816 37.3210417,42.8248967 L37.3210417,42.8248967 L16.360625,37.2086467 C14.7848368,36.7833726 13.8509609,35.1624806 14.2733988,33.5859297 Z M42.8689583,25.9308758 L48.0511042,27.3194175 C53.6080265,28.8084077 56.9057442,34.5202406 55.4167708,40.0771675 L55.4167708,40.0771675 L55.0494167,41.4482925 L49.8671458,40.0597508 C44.3102235,38.5707606 41.0125058,32.8589277 42.5014792,27.3020008 L42.5014792,27.3020008 L42.8689583,25.9308758 Z M24.953625,24.1939175 C25.3766003,22.6153669 26.9991577,21.678588 28.5777083,22.1015633 L28.5777083,22.1015633 L36.1997292,24.1438133 C37.7755173,24.5690874 38.7093933,26.1899794 38.2869554,27.7665302 C37.8645174,29.3430811 36.2453084,30.2798721 34.668,29.8602717 L34.668,29.8602717 L27.0459792,27.8180008 C25.4674285,27.3950255 24.5306497,25.7724681 24.953625,24.1939175 Z" id="food" fill="#FFB351" fill-rule="nonzero"></path>
    </g>
</svg>