<?xml version="1.0" encoding="UTF-8"?>
<svg width="120px" height="120px" viewBox="0 0 120 120" version="1.1" xmlns="http://www.w3.org/2000/svg" xmlns:xlink="http://www.w3.org/1999/xlink">
    <title>icon/meaning/harrassment</title>
    <g id="icon/meaning/harrassment" stroke="none" stroke-width="1" fill="none" fill-rule="evenodd">
        <path d="M97.2828125,70.4216175 C100.655654,70.4216175 103.890375,71.7613613 106.275346,74.1463086 C108.660316,76.5312559 110.000125,79.7659637 110.000125,83.138805 L110.000125,83.138805 L110.000125,105.838284 C110.000125,108.139423 108.134597,110.004836 105.833458,110.004951 L105.833458,110.004951 L95.4167917,110.004951 C95.3745833,110.004951 95.335375,109.993763 95.2937083,109.992743 C95.1482676,109.985545 95.0032881,109.970943 94.8593333,109.948993 C94.7306458,109.931701 94.6024792,109.918493 94.477875,109.889493 C94.3449808,109.855561 94.2139189,109.81482 94.0852083,109.76743 C93.9595,109.725201 93.8334375,109.687576 93.7136667,109.633659 C93.5898125,109.578222 93.4738333,109.506493 93.3550833,109.438847 C93.2393542,109.372222 93.122375,109.310159 93.0140417,109.232847 C92.9069167,109.157659 92.809,109.067555 92.7077917,108.980576 C92.5985468,108.889801 92.4939751,108.793546 92.3944792,108.69218 C92.3649792,108.661159 92.330375,108.639284 92.3018958,108.607243 L92.3018958,108.607243 L79.5393958,94.2477009 L71.9751042,107.862618 C71.2570793,109.173752 69.8917026,109.999768 68.397086,110.027222 C66.9024693,110.054676 65.5076784,109.27936 64.7419868,107.99548 C63.9762953,106.711599 63.9570533,105.115922 64.6915625,103.813951 L64.6915625,103.813951 L75.1082292,85.0639509 C75.7642258,83.8833925 76.9517084,83.0939895 78.2941544,82.9460425 C79.6366004,82.7980956 80.9674913,83.3099563 81.8648333,84.3193259 L81.8648333,84.3193259 L91.25,94.8773884 L91.25,74.5882842 C91.250115,72.2871454 93.1155279,70.4216175 95.4166667,70.4216175 L95.4166667,70.4216175 Z M37.0833333,30.8382842 C52.7754792,30.8382842 64.1666667,41.3525967 64.1666667,55.8382634 C64.1666667,58.1394498 62.3011865,60.00493 60,60.00493 C57.6988135,60.00493 55.8333333,58.1394498 55.8333333,55.8382634 C55.9497926,49.9213379 52.7275615,44.4421273 47.5,41.66793 L47.5,41.66793 L47.5,70.6387634 C47.5,70.6992842 47.485,70.7552425 47.4822083,70.8142425 C47.48475,70.8737425 47.5,70.9297009 47.5,70.9897009 L47.5,70.9897009 L47.5,105.838243 C47.5,108.139429 45.6345198,110.004909 43.3333333,110.004909 C41.0321469,110.004909 39.1666667,108.139429 39.1666667,105.838243 L39.1666667,105.838243 L39.1666667,74.5882425 L35,74.5882425 L35,105.838243 C35,108.139429 33.1345198,110.004909 30.8333333,110.004909 C28.5321469,110.004909 26.6666667,108.139429 26.6666667,105.838243 L26.6666667,105.838243 L26.6666667,70.9897009 C26.6666667,70.9297425 26.6819167,70.8737842 26.6844583,70.8142634 C26.6816667,70.7552634 26.6666667,70.6992009 26.6666667,70.6387842 L26.6666667,70.6387842 L26.6666667,41.6679509 C21.4391052,44.4421481 18.2168741,49.9213588 18.3333333,55.8382842 C18.3333333,58.1394707 16.4678531,60.0049509 14.1666667,60.0049509 C11.8654802,60.0049509 10,58.1394707 10,55.8382842 C10,41.3525967 21.3911875,30.8382842 37.0833333,30.8382842 Z M83.9583333,55.8382842 C87.9854096,55.8382842 91.25,59.1028746 91.25,63.1299509 C91.25,67.1570272 87.9854096,70.4216175 83.9583333,70.4216175 C79.931257,70.4216175 76.6666667,67.1570272 76.6666667,63.1299509 C76.6666667,59.1028746 79.931257,55.8382842 83.9583333,55.8382842 Z M73.5198072,30.8333916 L73.728341,30.8390686 C74.8440989,30.9066484 75.8388175,31.5649691 76.3370833,32.5655759 L76.3370833,32.5655759 L80.50375,40.8989092 C81.005276,41.897886 80.9351013,43.0886532 80.3197104,44.0218075 C79.7043195,44.9549617 78.637417,45.488413 77.521659,45.4208331 C76.4059011,45.3532533 75.4111825,44.6949327 74.9129167,43.6943259 L74.9129167,43.6943259 L70.74625,35.3609925 C70.244724,34.3620158 70.3148987,33.1712486 70.9302896,32.2380943 C71.5456805,31.30494 72.612583,30.7714888 73.728341,30.8390686 Z M90.2083333,24.5882842 C91.9342232,24.5882842 93.3333333,25.9873944 93.3333333,27.7132842 C93.3333333,29.4391741 91.9342232,30.8382842 90.2083333,30.8382842 L90.2083333,30.8382842 L81.875,30.8382842 C80.149296,30.8378357 78.7504485,29.4389882 78.75,27.7132842 C78.7504485,25.9875802 80.149296,24.5887327 81.875,24.5882842 L81.875,24.5882842 Z M49.5833333,12.0882842 C54.1857062,12.0882842 57.9166667,15.8192446 57.9166667,20.4216175 C57.9166667,25.0239905 54.1857062,28.7549509 49.5833333,28.7549509 C44.9809604,28.7549509 41.25,25.0239905 41.25,20.4216175 C41.25,15.8192446 44.9809604,12.0882842 49.5833333,12.0882842 Z M77.521659,10.0057353 C78.637417,9.93815546 79.7043195,10.4716067 80.3197104,11.404761 C80.9351013,12.3379152 81.005276,13.5286824 80.50375,14.5276592 L80.50375,14.5276592 L76.3370833,22.8609925 C75.5647247,24.4043677 73.6878703,25.0299858 72.1439583,24.2587009 C70.600414,23.4864889 69.9747417,21.609472 70.74625,20.0655759 L70.74625,20.0655759 L74.9129167,11.7322425 C75.4111825,10.7316357 76.4059011,10.0733151 77.521659,10.0057353 Z" id="Combined-Shape" fill="#FFB351" fill-rule="nonzero"></path>
    </g>
</svg>