<?xml version="1.0" encoding="UTF-8"?>
<svg width="120px" height="120px" viewBox="0 0 120 120" version="1.1" xmlns="http://www.w3.org/2000/svg" xmlns:xlink="http://www.w3.org/1999/xlink">
    <title>icon/meaning/health</title>
    <g id="icon/meaning/health" stroke="none" stroke-width="1" fill="none" fill-rule="evenodd">
        <path d="M39.5,17.5000044 C41.9307365,17.5034678 44.2769825,18.3921974 46.1000073,20.0000044 L46.1000073,20.0000044 L82.0000163,20.0000044 C93.0457141,20.0000044 102.000021,28.9543123 102.000021,40.0000044 C102.000021,51.0457078 93.0457141,60.000015 82.0000163,60.000015 L82.0000163,60.000015 L69.5000132,60.000015 L69.5000132,65.0000163 L54.5,65.0000163 L54.5,60.000015 L47,60.000015 C44.2385831,60.000015 42,62.2385919 42,65.0000163 C42,67.7614407 44.2385831,70.0000175 47,70.0000175 L47,70.0000175 L72.0000138,70.0000175 C83.0457116,70.0000175 92.0000188,78.9543248 92.0000188,90.0000226 C92.0000188,101.04572 83.0457116,110.000028 72.0000138,110.000028 L72.0000138,110.000028 L69.5000132,110.000028 L69.5000132,112.500028 C69.5053151,113.353969 69.3527531,114.201536 69.050013,115.000029 C68.9304789,115.362315 68.779921,115.713617 68.6000129,116.050029 C68.5243991,116.230165 68.4233732,116.398541 68.3000129,116.550029 C68.2254402,116.680653 68.1419068,116.805953 68.0500128,116.925029 C66.9981319,118.38073 65.4515288,119.40291 63.7000117,119.80003 C63.561229,119.839264 63.4188407,119.864392 63.2750116,119.87503 C62.4331774,120.041657 61.5668452,120.041657 60.725011,119.87503 C60.5811818,119.864392 60.4387936,119.839264 60.3000109,119.80003 C60.1191658,119.773382 59.9426368,119.722945 59.7750107,119.65003 C59.6253286,119.626577 59.4812536,119.575727 59.3500106,119.50003 C57.9841594,119.001958 56.7995697,118.104806 55.9500098,116.925029 C55.8581157,116.805953 55.7745824,116.680653 55.7000097,116.550029 C55.5766493,116.398541 55.4756234,116.230165 55.4000096,116.050029 C55.2201016,115.713617 55.0695436,115.362315 54.9500095,115.000029 C54.6472695,114.201536 54.4947074,113.353969 54.5,112.500028 L54.5,112.500028 L54.5,110.000028 L49.5,110.000028 C45.3578715,110.000028 42,106.642162 42,102.500026 C42,98.357889 45.3578715,95.0000238 49.5,95.0000238 L49.5,95.0000238 L54.5,95.0000238 L54.5,90.0000226 L69.5000132,90.0000226 L69.5000132,95.0000238 L72.0000138,95.0000238 C74.7614382,95.0000238 77.000015,92.761447 77.000015,90.0000226 C77.000015,87.2385981 74.7614382,85.0000213 72.0000138,85.0000213 L72.0000138,85.0000213 L47,85.0000213 C35.9543098,85.0000213 27,76.0457141 27,65.0000163 C27,53.9543185 35.9543098,45.0000044 47,45.0000044 L47,45.0000044 L54.5,45.0000044 L54.5,40.0000044 L69.5000132,40.0000044 L69.5000132,45.0000044 L82.0000163,45.0000044 C84.7614407,45.0000044 87.0000175,42.7614345 87.0000175,40.0000044 C87.0000175,37.2385856 84.7614407,35.0000044 82.0000163,35.0000044 L82.0000163,35.0000044 L46.1000073,35.0000044 C44.2769825,36.6078164 41.9307365,37.4965459 39.5,37.5000044 L39.5,37.5000044 L27,37.5000044 C21.4771536,37.5000044 17,33.0228558 17,27.5000044 C17,21.977158 21.4771536,17.5000044 27,17.5000044 L27,17.5000044 Z M27.0000019,22.5000056 C25.6192903,22.5000056 24.5000019,23.619294 24.5000019,25.0000056 C24.5000019,26.3807185 25.6192903,27.5000056 27.0000019,27.5000056 C28.3790052,27.4958884 29.4958846,26.3790089 29.5000019,25.0000056 C29.5000019,23.619294 28.3807147,22.5000056 27.0000019,22.5000056 Z M62.0000094,0 C66.1421479,0 69.5000094,3.35786522 69.5000094,7.5 L69.5000094,7.5 L69.5000094,15 L54.5000094,15 L54.5000094,7.5 C54.5000094,3.35786522 57.8578746,0 62.0000094,0 Z" id="health" fill="#FFB351" fill-rule="nonzero"></path>
    </g>
</svg>