<?xml version="1.0" encoding="UTF-8"?>
<svg width="120px" height="120px" viewBox="0 0 120 120" version="1.1" xmlns="http://www.w3.org/2000/svg" xmlns:xlink="http://www.w3.org/1999/xlink">
    <title>icon/meaning/shelter</title>
    <g id="icon/meaning/shelter" stroke="none" stroke-width="1" fill="none" fill-rule="evenodd">
        <path d="M88.7730882,70.2959958 L89.1694276,70.3035007 C101.044589,70.3035007 109.999272,78.7699023 109.999272,89.9960572 C109.999272,91.7219101 108.600192,93.1209902 106.874339,93.1209902 C105.148487,93.1209902 103.749406,91.7219101 103.749406,89.9960572 C103.771871,84.9195868 100.845364,80.2917695 96.249359,78.1358951 L96.249359,78.1358951 L99.6146201,93.1647393 C100.37407,97.3424234 98.5679997,101.570304 95.0245116,103.909855 C91.4810236,106.249407 86.8835393,106.249407 83.3400513,103.909855 C79.7965632,101.570304 77.9904934,97.3424234 78.7499428,93.1647393 L78.7499428,93.1647393 L82.089642,78.1358951 C77.4939221,80.2919575 74.5677699,84.9197662 74.5904904,89.9960572 C74.5904904,91.7219101 73.1914103,93.1209902 71.4655575,93.1209902 C69.7397047,93.1209902 68.3406245,91.7219101 68.3406245,89.9960572 L68.3406245,89.9960572 L68.3447911,89.914684 C68.3515391,87.697199 67.6140174,85.5415819 66.2503152,83.792982 L66.2503152,83.792982 L66.2503152,91.0842422 C66.2503153,93.316107 65.0596297,95.378435 63.1267781,96.4943674 C61.1939266,97.6102998 58.8125553,97.6102998 56.8797037,96.4943674 C54.9468522,95.378435 53.7561666,93.316107 53.7561666,91.0842422 L53.7561666,91.0842422 L53.7561666,83.7955236 C52.3935118,85.5436153 51.6565651,87.6982435 51.6632324,89.914684 L51.6632324,89.914684 L51.6605449,89.9416417 L51.6632324,89.9960572 C51.6632324,91.7219101 50.2641523,93.1209902 48.5382994,93.1209902 C46.8124466,93.1209902 45.4133665,91.7219101 45.4133665,89.9960572 C45.4421512,85.4359932 43.0709902,81.1967192 39.1703546,78.8345051 L39.1703546,78.8345051 L39.1703546,97.3313165 C39.1703546,101.933591 35.4394743,105.664519 30.8372001,105.664519 C26.234926,105.664519 22.5040456,101.933591 22.5040456,97.3313165 L22.5040456,97.3313165 L22.5040456,78.829401 C18.59949,81.1910941 16.2254829,85.4329102 16.2544297,89.9960572 C16.2544297,91.7219101 14.8553496,93.1209902 13.1294968,93.1209902 C11.4036439,93.1209902 10.0045638,91.7219101 10.0045638,89.9960572 C10.0045638,78.7699856 18.9591425,70.3035007 30.8332835,70.3035007 C38.1091596,70.0958194 44.9574204,73.7324364 48.8603967,79.8763994 C51.4997351,76.3835457 55.6240854,74.3302873 60.0019997,74.3296856 C64.3799141,74.329084 68.5048285,76.3812088 71.1451268,79.873337 C75.0483488,73.7314442 81.8951569,70.0961945 89.1694276,70.3035007 Z M60.0016993,59.8104966 C62.8840758,59.8104966 65.2207331,62.1471123 65.2207331,65.0294888 C65.2207331,67.9118654 62.8841592,70.2485643 60.0017826,70.2485643 C57.1194061,70.2485643 54.7826655,67.912032 54.7826655,65.0296555 C54.7826655,63.6454515 55.3324421,62.3179217 56.3112104,61.3391299 C57.2899787,60.3603382 58.6174953,59.8104966 60.0016993,59.8104966 Z M89.1698234,53.5822553 C92.621529,53.5822553 95.4196893,56.3804156 95.4196893,59.8321212 C95.4196893,63.2838268 92.621529,66.0819871 89.1698234,66.0819871 C85.7181178,66.0819871 82.9199575,63.2838268 82.9199575,59.8321212 C82.9199575,56.3804156 85.7181178,53.5822553 89.1698234,53.5822553 Z M30.8357001,53.5822553 C34.2874058,53.5822553 37.085566,56.3804156 37.085566,59.8321212 C37.085566,63.2838268 34.2874058,66.0819871 30.8357001,66.0819871 C27.3839945,66.0819871 24.5858343,63.2838268 24.5858343,59.8321212 C24.5858343,56.3804156 27.3839945,53.5822553 30.8357001,53.5822553 Z M56.90287,14.822712 C58.8243527,13.7254134 61.1827883,13.7257858 63.1039244,14.8236912 L63.1039244,14.8236912 L106.849923,39.8231547 C109.846579,41.5355229 110.8877,45.352941 109.175331,48.3495967 C107.462963,51.3462524 103.645545,52.3873732 100.64889,50.6750052 L100.64889,50.6750052 L60.0033868,27.4476494 L19.3518007,50.6761093 C16.3545697,52.3884775 12.5366852,51.3468903 10.8243171,48.3496592 C9.11194891,45.3524282 10.1535361,41.5345437 13.1507671,39.8221756 L13.1507671,39.8221756 Z" id="shelter" fill="#FFB351" fill-rule="nonzero"></path>
    </g>
</svg>