<?xml version="1.0" encoding="UTF-8"?>
<svg width="120px" height="120px" viewBox="0 0 120 120" version="1.1" xmlns="http://www.w3.org/2000/svg" xmlns:xlink="http://www.w3.org/1999/xlink">
    <title>icon/meaning/transportation</title>
    <g id="icon/meaning/transportation" stroke="none" stroke-width="1" fill="none" fill-rule="evenodd">
        <path d="M107.727273,25.9090909 L105.454545,25.9090909 L105.454545,17.0456818 C105.435312,13.1625423 102.29223,10.0193585 98.4090909,10 L21.5909091,10 C17.7077702,10.0193585 14.5646878,13.1625423 14.5454545,17.0456818 L14.5454545,25.9090909 L12.2727273,25.9090909 C11.0191301,25.9129343 10.0038434,26.928221 10,28.1818182 L10,55.4545455 C10.0038434,56.7081426 11.0191301,57.7234294 12.2727273,57.7272727 L14.5454545,57.7272727 L14.5454545,93.8634091 C14.5564997,97.6584426 17.5705997,100.763297 21.3636364,100.886886 L21.3636364,104.318182 C21.3636364,107.456163 23.907473,110 27.0454545,110 C30.1834361,110 32.7272727,107.456163 32.7272727,104.318182 L32.7272727,100.909091 L89.5454545,100.909091 L89.5454545,104.318182 C89.5454545,107.456163 92.0892912,110 95.2272727,110 C98.3652543,110 100.909091,107.456163 100.909091,104.318182 L100.909091,100.454091 C103.631475,99.3959986 105.432843,96.7841049 105.454545,93.8634091 L105.454545,57.7272727 L107.727273,57.7272727 C108.98087,57.7234294 109.996157,56.7081426 110,55.4545455 L110,28.1818182 C109.996157,26.928221 108.98087,25.9129343 107.727273,25.9090909 Z M21.3636364,19.0909091 C21.3674797,17.8373119 22.3827664,16.8220252 23.6363636,16.8181818 L96.3636364,16.8181818 C97.6172336,16.8220252 98.6325203,17.8373119 98.6363636,19.0909091 L98.6363636,21.3636364 C98.6325203,22.6172336 97.6172336,23.6325203 96.3636364,23.6363636 L23.6363636,23.6363636 C22.3827664,23.6325203 21.3674797,22.6172336 21.3636364,21.3636364 L21.3636364,19.0909091 Z M30.4545455,90.6818182 C29.4708459,91.4190648 28.2747622,91.8177594 27.0454545,91.8181818 C25.8214309,91.8282366 24.6292813,91.4281864 23.6590909,90.6818182 C21.7041993,89.2187067 20.9054565,86.6684518 21.6764553,84.3515882 C22.4474541,82.0347246 24.6150368,80.4715945 27.0568182,80.4715945 C29.4985996,80.4715945 31.6661822,82.0347246 32.4371811,84.3515882 C33.2081799,86.6684518 32.409437,89.2187067 30.4545455,90.6818182 L30.4545455,90.6818182 Z M55.4545455,62.2727273 C55.4507021,63.5263245 54.4354154,64.5416112 53.1818182,64.5454545 L23.6363636,64.5454545 C22.3827664,64.5416112 21.3674797,63.5263245 21.3636364,62.2727273 L21.3636364,35 C21.3674797,33.7464028 22.3827664,32.7311161 23.6363636,32.7272727 L53.1818182,32.7272727 C54.4354154,32.7311161 55.4507021,33.7464028 55.4545455,35 L55.4545455,62.2727273 Z M64.5454545,62.2727273 L64.5454545,35 C64.5492979,33.7464028 65.5645846,32.7311161 66.8181818,32.7272727 L96.3636364,32.7272727 C97.6172336,32.7311161 98.6325203,33.7464028 98.6363636,35 L98.6363636,62.2727273 C98.6325203,63.5263245 97.6172336,64.5416112 96.3636364,64.5454545 L66.8181818,64.5454545 C65.5645846,64.5416112 64.5492979,63.5263245 64.5454545,62.2727273 Z M98.6363636,90.6818182 C97.6526641,91.4190648 96.4565804,91.8177594 95.2272727,91.8181818 C94.0032491,91.8282366 92.8110995,91.4281864 91.8409091,90.6818182 C89.8860175,89.2187067 89.0872746,86.6684518 89.8582735,84.3515882 C90.6292723,82.0347246 92.796855,80.4715945 95.2386364,80.4715945 C97.6804177,80.4715945 99.8480004,82.0347246 100.618999,84.3515882 C101.389998,86.6684518 100.591255,89.2187067 98.6363636,90.6818182 L98.6363636,90.6818182 Z" id="transportation" fill="#FFB351" fill-rule="nonzero"></path>
    </g>
</svg>