<?xml version="1.0" encoding="UTF-8"?>
<svg width="120px" height="120px" viewBox="0 0 120 120" version="1.1" xmlns="http://www.w3.org/2000/svg" xmlns:xlink="http://www.w3.org/1999/xlink">
    <title>icon/meaning/clothing</title>
    <g id="icon/meaning/clothing" stroke="none" stroke-width="1" fill="none" fill-rule="evenodd">
        <path d="M45.4166622,16 C45.4255147,24.050488 51.9495167,30.57449 60,30.5833424 C68.0504974,30.5745015 74.5745062,24.0504927 74.5833471,16 L74.5833471,16 L86.1666877,16 C86.708072,16.0081003 87.2273986,16.2158309 87.625022,16.5833337 L87.625022,16.5833337 L89.1875229,18.0833346 L109.375036,37.4793051 C109.774803,37.8718278 110,38.4085696 110,38.9688269 C110,39.5290841 109.774803,40.0658259 109.375036,40.4583486 L109.375036,40.4583486 L96.6458609,52.8958564 C95.834803,53.6875336 94.5402504,53.6875336 93.7291924,52.8958564 L93.7291924,52.8958564 L85.0000203,45.1666849 L85.0000203,101.41672 C84.9966906,102.565932 84.0658976,103.496725 82.9166857,103.500055 L82.9166857,103.500055 L37.0833237,103.500055 C35.9341165,103.496714 35.0033301,102.565927 34.9999891,101.41672 L34.9999891,101.41672 L34.9999891,45.1666849 L26.2708169,52.8958564 C25.459759,53.6875336 24.1652064,53.6875336 23.3541485,52.8958564 L23.3541485,52.8958564 L10.6249738,40.4583486 C10.2252062,40.0658259 10,39.5290841 10,38.9688269 C10,38.4085696 10.2252062,37.8718278 10.6249738,37.4793051 L10.6249738,37.4793051 L30.8124864,18.0833346 L32.3749874,16.5833337 C32.7726161,16.2158394 33.2919393,16.0081101 33.8333217,16 L33.8333217,16 Z M70.4166779,16 C70.4145967,21.7521075 65.7521122,26.414592 60.0000047,26.4166732 C54.2478972,26.414592 49.5854126,21.7521075 49.5833315,16 L49.5833315,16 Z" id="Combined-Shape" fill="#FFB351" fill-rule="nonzero"></path>
    </g>
</svg>