<?xml version="1.0" encoding="UTF-8"?>
<svg width="120px" height="120px" viewBox="0 0 120 120" version="1.1" xmlns="http://www.w3.org/2000/svg" xmlns:xlink="http://www.w3.org/1999/xlink">
    <title>icon/meaning/training</title>
    <g id="icon/meaning/training" stroke="none" stroke-width="1" fill="none" fill-rule="evenodd">
        <path d="M105.833333,10 C108.13452,10 110,11.8654802 110,14.1666667 L110,14.1666667 L110,53.75 C110,56.0511579 108.134491,57.9165976 105.833333,57.9166667 L105.833333,57.9166667 L60,57.9166667 C57.6988421,57.9165976 55.8334024,56.0511579 55.8333333,53.75 L55.8333333,53.75 L55.8333333,39.1666667 L47.5,39.1666667 L47.5,70.625 C47.5,70.686625 47.48475,70.7439583 47.4816875,70.805 C47.4844792,70.8659167 47.5,70.92325 47.5,70.9848125 L47.5,70.9848125 L47.5,105.833333 C47.5,108.13452 45.6345198,110 43.3333333,110 C41.0321469,110 39.1666667,108.13452 39.1666667,105.833333 L39.1666667,105.833333 L39.1666667,74.5833333 L35,74.5833333 L35,105.833333 C35,108.13452 33.1345198,110 30.8333333,110 C28.5321469,110 26.6666667,108.13452 26.6666667,105.833333 L26.6666667,105.833333 L26.6666667,70.9848125 C26.6666667,70.92325 26.6821875,70.8659167 26.6849792,70.8050417 C26.6819167,70.744 26.6666667,70.6866667 26.6666667,70.625 L26.6666667,70.625 L26.6666667,41.7691875 C21.4460438,44.4970394 18.2185252,49.9441145 18.3333333,55.8333333 C18.3333333,58.1345198 16.4678531,60 14.1666667,60 C11.8654802,60 10,58.1345198 10,55.8333333 C10,41.581625 21.6210833,30.8333333 37.0324792,30.8333333 L37.0324792,30.8333333 L55.8333333,30.8333333 L55.8333333,14.1666667 C55.8333333,11.8654802 57.6988135,10 60,10 L60,10 Z M101.666667,18.3333333 L64.1666667,18.3333333 L64.1666667,30.8333333 L72.5,30.8333333 C74.8011865,30.8333333 76.6666667,32.6988135 76.6666667,35 C76.6666667,37.3011865 74.8011865,39.1666667 72.5,39.1666667 L72.5,39.1666667 L64.1666667,39.1666667 L64.1666667,49.5833333 L101.666667,49.5833333 L101.666667,18.3333333 Z M37.0833333,10 C41.6857062,10 45.4166667,13.7309604 45.4166667,18.3333333 C45.4166667,22.9357062 41.6857062,26.6666667 37.0833333,26.6666667 C32.4809604,26.6666667 28.75,22.9357062 28.75,18.3333333 C28.75,13.7309604 32.4809604,10 37.0833333,10 Z" id="training" fill="#FFB351" fill-rule="nonzero"></path>
    </g>
</svg>